<svg width="95" height="31" viewBox="0 0 95 31" fill="none" xmlns="http://www.w3.org/2000/svg">
<g clip-path="url(#clip0)">
<path d="M76.714 9.01603C75.6116 9.48863 74.9072 10.2164 73.3987 10.3629C74.3684 10.8875 76.6145 11.0435 77.5428 10.7079C77.6606 10.6742 77.7604 10.6231 77.8318 10.5599C77.9032 10.4968 77.9436 10.4238 77.9489 10.3487C77.9489 10.0983 78.0235 9.758 78.413 9.7202C78.9505 9.60675 79.5438 9.61521 80.0706 9.74383C80.9575 10.0841 81.9769 10.0416 82.9135 10.2164C83.4374 10.2611 83.9356 10.3755 84.3675 10.5504C84.7995 10.7253 85.1532 10.9557 85.3999 11.2231C85.6734 11.5184 85.9865 11.8012 86.3364 12.069C86.3709 12.1104 86.3754 12.1579 86.3491 12.2012C86.3227 12.2445 86.2676 12.2802 86.1955 12.3006C86.1273 12.3229 86.0464 12.329 85.9703 12.3175C85.8942 12.306 85.8292 12.2778 85.7894 12.2391C85.7066 12.1635 85.7148 12.0548 85.632 11.9839C85.5613 11.9024 85.4468 11.8359 85.3051 11.7943C85.1634 11.7526 85.002 11.7379 84.8446 11.7524C84.5379 11.7949 84.5131 11.9792 84.5545 12.1304C84.6954 12.6645 84.0572 12.8204 83.361 12.9149C82.7831 13.0348 82.1678 13.0847 81.5542 13.0614C80.5099 12.896 80.4602 13.1229 80.7751 13.534C81.1481 14.0066 80.3359 14.5454 81.1067 14.9518C81.1104 14.9815 81.1027 15.0112 81.0841 15.039C81.0655 15.0668 81.0364 15.0919 80.9989 15.1125C80.0458 15.5 80.3441 16.1853 79.8386 16.7004C80.2778 16.7808 80.5845 16.9226 81.1398 16.7004C82.1758 16.3129 82.5654 16.4641 82.7394 17.173C82.8886 17.759 82.4742 18.0757 81.3636 18.2033C80.1281 18.502 78.9882 18.9157 77.9903 19.4273C78.7979 19.4387 79.602 19.3633 80.3607 19.2052C83.9751 18.6778 87.6464 18.2863 91.3507 18.0332C92.5194 17.5606 93.8372 18.0332 95.0307 17.8725C95.3539 17.8252 95.9838 17.9245 95.9755 18.1135C95.9755 18.6853 96.9784 18.8791 97.2353 19.4604C95.3705 19.8243 93.8206 20.7364 91.5165 20.4056C90.8244 20.368 90.1275 20.4399 89.5025 20.6135C89.343 20.6339 89.2024 20.6871 89.1076 20.763C89.0127 20.8389 88.9704 20.9321 88.9886 21.0247C89.0384 21.1901 89.3285 21.2326 89.5854 21.2799C89.9749 21.3508 90.4142 21.2184 90.8783 21.5445C88.3919 22.4897 85.4496 22.6551 82.7477 23.279C82.64 23.6098 84.3473 23.9501 82.2753 24.3187C83.5848 24.3659 84.6291 23.8981 85.0186 24.7157C82.774 25.1825 80.4824 25.5723 78.1561 25.883C74.0618 26.4973 70.0918 27.1921 66.1052 27.8537C64.7537 28.0229 63.439 28.2765 62.1849 28.6098C61.8001 28.6967 61.442 28.818 61.124 28.969C60.6728 29.2223 60.0926 29.3878 59.4664 29.4416C57.5146 29.5978 55.5256 29.486 53.6647 29.1155C52.0486 28.8414 50.0263 27.6458 50.0263 26.5966C50.0263 26.4926 49.7693 26.3697 50.0926 26.2941C50.2102 26.2524 50.3486 26.234 50.4865 26.2417C50.6243 26.2494 50.7539 26.2828 50.8551 26.3367C51.0732 26.4751 51.2446 26.6353 51.3607 26.8093C51.9077 27.5512 53.0183 27.6552 54.2532 27.7072C54.7008 27.7072 54.9163 27.5796 55.1317 27.3905C55.455 27.1023 54.9577 27.0314 54.7422 26.8849C54.5267 26.7384 54.3112 26.6155 54.1123 26.4737C53.9134 26.3319 53.8305 26.0011 54.2201 25.9255C54.908 25.7506 54.9991 25.3678 55.2975 25.0654C55.7865 24.5928 55.7368 24.5928 54.9494 24.0918C55.1317 23.8886 55.3638 23.9737 55.5959 24.054C55.8279 24.1344 56.2838 24.1344 56.4247 23.9359C56.8308 23.1655 57.958 22.7355 59.11 22.0738C57.8522 22.1977 56.6838 22.5259 55.7451 23.019C54.806 23.5862 53.715 24.0648 52.5127 24.4368C51.6154 24.6576 50.7782 24.9505 50.0263 25.3064C49.471 25.59 48.5593 25.6183 47.8714 25.8357C43.8019 27.107 39.6827 28.331 35.4889 29.4652C35.1077 29.5692 34.6601 29.6448 34.4695 29.8811C33.6407 30.9492 32.1571 30.8689 30.4746 30.8263C28.538 30.7945 26.6725 30.4028 25.162 29.711C24.5984 29.4558 23.5043 28.5579 23.5872 28.2176C23.6701 27.8773 24.0431 27.9293 24.416 28.0049C24.789 28.0805 24.9216 28.3027 25.1288 28.4775C25.3435 28.666 25.6273 28.8257 25.9607 28.9457C26.2941 29.0656 26.6691 29.1429 27.0599 29.1722C27.45 29.2249 27.8608 29.1873 28.2025 29.0678C28.5442 28.9482 28.789 28.7564 28.8833 28.5342C29.0076 28.2932 28.7176 28.227 28.4192 28.1372C27.7644 27.9482 27.5324 27.7072 28.212 27.3811C28.3612 27.3055 28.585 27.1779 28.5601 27.0928C28.328 26.2658 29.3889 25.675 29.7121 24.9661C29.7514 24.836 29.8381 24.712 29.9665 24.6021C30.095 24.4922 30.2625 24.3989 30.4581 24.3281C32.9445 23.3546 35.0911 22.0928 37.5195 21.02C39.7573 20.0748 41.9288 19.0303 44.2246 18.104C44.9224 17.8844 45.497 17.5567 45.8822 17.1589C44.6175 17.4573 43.4429 17.8671 42.4012 18.3734C40.9011 19.0492 39.086 19.5171 37.9091 20.4103C37.5181 20.6185 37.0424 20.7679 36.525 20.8451C35.9845 20.9889 35.5019 21.1948 35.1077 21.45C33.533 22.2865 31.7924 22.8914 29.5049 22.778C29.2314 22.778 29.2397 22.9198 29.074 22.9718C28.5932 23.1183 28.1457 23.5767 27.6235 22.9718C27.5324 22.8773 27.3832 23.0049 27.2589 23.0285C25.686 23.3525 24.2036 23.8045 22.8579 24.3707C18.7801 25.8688 14.6609 27.3291 10.5583 28.8083C9.12449 29.3282 7.67407 29.848 6.2651 30.3915C5.67737 30.6242 4.99226 30.7643 4.2791 30.7975C3.56594 30.8307 2.85006 30.7559 2.20393 30.5806C1.74115 30.4366 1.20537 30.3882 0.687203 30.4435C0.0356836 30.5649 -0.671628 30.5441 -1.29783 30.3852C-1.92403 30.2263 -2.42459 29.9406 -2.70263 29.5834C-2.81866 29.4558 -2.89326 29.3187 -3.01758 29.1392C-2.37111 28.8698 -1.55058 29.0257 -0.887536 28.8414C-0.406826 28.7091 0.00757909 28.8414 0.355679 29.0966C0.70378 29.3518 0.0241551 29.4841 0.115324 29.7441C1.90555 29.6307 3.67921 29.5267 4.88098 28.6146C6.23194 28.5153 7.17679 27.9624 8.29568 27.6174C8.45285 27.5614 8.57256 27.4769 8.63566 27.3775C8.69876 27.2782 8.70162 27.1696 8.64378 27.0692C9.61349 27.2535 10.376 26.9794 11.1302 26.6911C13.1525 25.9255 15.208 25.1883 17.1722 24.3754C18.001 24.0351 19.0785 23.865 19.6587 23.312C21.366 23.1088 22.5927 22.4614 23.869 21.8612C25.8333 21.4689 30.0437 20.1173 30.6238 19.692C30.4249 19.5927 30.226 19.6447 30.0354 19.692L24.6895 21.3413C24.4833 21.3815 24.2986 21.4513 24.1534 21.544C24.0083 21.6367 23.9075 21.7492 23.8607 21.8706C23.6747 21.858 23.4861 21.8707 23.3103 21.9076C23.1346 21.9446 22.9767 22.0048 22.8496 22.0833C21.855 22.5559 20.3632 22.6221 19.6504 23.3168C18.6794 23.4679 17.7737 23.7318 16.9899 24.0918C14.2134 25.0843 11.4452 26.0909 8.7018 27.0928C7.87299 27.4047 7.04418 27.7025 6.21537 28.038C5.75952 28.2176 5.09647 28.2554 4.93071 28.6382C4.01073 28.6098 3.14877 28.2885 2.1542 28.5248C2.01697 28.5736 1.86268 28.6048 1.70213 28.6161C1.54158 28.6274 1.37864 28.6185 1.22471 28.5902C1.07078 28.5618 0.929569 28.5146 0.810956 28.4519C0.692344 28.3892 0.599193 28.3124 0.538018 28.227C0.388832 28.0096 1.13476 27.4047 1.62376 27.2819C1.86026 27.2106 2.12852 27.181 2.39455 27.1968C3.7538 27.4851 4.05217 26.7242 4.7981 26.4265C4.36712 25.7459 5.62691 25.7176 6.09105 25.4009C6.43937 25.199 6.69264 24.9502 6.82739 24.6775C6.96213 24.4049 6.97398 24.1173 6.86184 23.8414C6.75409 23.5862 6.96958 23.4444 7.11877 23.2553C7.83983 22.3101 9.38971 21.8895 10.7904 21.4264C13.6498 20.4812 16.3932 19.4226 19.1945 18.4207C23.5789 16.8517 28.1788 15.5048 32.7456 14.1248C42.2038 11.3122 51.9773 8.85879 62.0026 6.78065C66.0325 5.87885 70.1922 5.17835 74.4347 4.68705C75.1078 4.5908 75.7358 4.41176 76.2747 4.16247C76.6559 4.01124 76.6477 3.58118 77.2775 3.66152C77.9074 3.74186 78.844 3.75604 79.3661 4.13412C79.502 4.2588 79.715 4.34987 79.9629 4.38932C81.7697 4.56418 82.4493 5.39595 83.1041 6.19463C83.1953 6.29388 83.361 6.42148 83.1041 6.50655C82.8472 6.59161 82.6317 6.55381 82.5819 6.41203C82.4659 6.11902 81.894 6.2797 81.7531 5.93943C81.5625 6.31278 81.7531 6.61997 81.289 6.79483C80.9224 6.9759 80.4561 7.07792 79.9712 7.08311C78.6617 6.99332 78.3136 7.58406 77.7251 8.02831C77.3579 8.36174 77.0258 8.70735 76.7305 9.06329C76.6559 8.94987 76.5482 8.83172 76.3161 8.83172C76.0841 8.83172 75.794 8.83172 75.736 9.08219C76.0343 9.14363 76.3659 9.03021 76.714 9.01603ZM37.5941 26.8093C38.9865 26.8093 39.9977 26.2752 41.1497 25.9728C42.0531 25.7317 43.1223 25.5474 43.6361 24.985C44.2787 24.9748 44.9016 24.8564 45.4264 24.6448C46.8768 24.2194 48.3189 23.7705 49.7528 23.331C50.2314 23.232 50.6257 23.0325 50.8551 22.7733C50.5401 22.7733 50.3661 22.7733 50.25 22.8016C48.6753 23.2742 47.0923 23.7752 45.5341 24.2903C44.9125 24.4983 44.1169 24.5739 43.7273 24.985C42.6167 24.9236 41.8791 25.3867 41.0088 25.6467C39.7908 25.9203 38.6681 26.3156 37.6936 26.814C37.3249 26.7812 36.9476 26.8202 36.6227 26.9249C36.2979 27.0295 36.0444 27.1936 35.9033 27.3905C36.6741 27.2015 37.2875 27.1401 37.5941 26.8093ZM61.2649 26.7242C64.4559 26.5021 67.4396 25.8263 70.4979 25.3064C73.5562 24.7865 76.5896 24.3234 79.6148 23.8319L79.5153 23.6429C73.3987 24.5266 67.2738 25.486 61.2815 26.7053L61.2649 26.7242ZM42.8405 16.0955C40.5326 16.5469 38.3221 17.1462 36.2514 17.8819C38.655 17.5322 40.6359 16.6863 42.8405 16.0955ZM62.4584 27.5607C63.138 27.6552 63.3867 28.0333 63.9586 27.7497C64.0075 27.7179 64.0416 27.6796 64.0575 27.6383C64.0734 27.5969 64.0708 27.554 64.0497 27.5134C63.6188 27.2819 63.1795 27.3433 62.4584 27.5607ZM80.2613 24.6731C79.4846 24.656 78.7193 24.7837 78.0815 25.037C78.8689 25.0181 79.6728 25.0512 80.253 24.6731H80.2613ZM73.0755 25.8074C73.3856 25.8521 73.7092 25.8571 74.023 25.822C74.3369 25.7868 74.6332 25.7124 74.8906 25.6041C74.5717 25.5227 74.2108 25.5126 73.8794 25.5758C73.723 25.5793 73.5696 25.6017 73.4296 25.6417C73.2895 25.6816 73.166 25.7381 73.0672 25.8074H73.0755ZM67.8954 26.7006C68.343 26.7006 68.6331 26.7006 68.8071 26.5304C68.6433 26.4918 68.4608 26.4878 68.2922 26.519C68.1236 26.5501 67.98 26.6145 67.8871 26.7006H67.8954ZM79.2253 16.6059C79.2253 16.5492 79.2253 16.4216 78.9849 16.4641C78.8584 16.4827 78.7414 16.5181 78.6435 16.5674C78.5455 16.6167 78.4694 16.6784 78.4213 16.7477C78.355 16.8469 78.4876 16.9131 78.6534 16.9273C79.0346 16.9651 79.2087 16.8328 79.2253 16.6059ZM60.2621 11.7287C60.834 11.8752 61.0909 11.6626 61.4307 11.535C60.8588 11.4026 60.6185 11.5775 60.2621 11.7287ZM51.7419 23.6003L51.3109 23.7846C51.4021 23.7846 51.485 23.8508 51.5679 23.8508C51.6701 23.8493 51.7686 23.8285 51.8481 23.7918C51.9275 23.755 51.9834 23.7043 52.0071 23.6476C52.032 23.5814 51.916 23.5531 51.7419 23.6003ZM45.0534 15.5804C45.2109 15.5048 45.1943 15.4433 45.0534 15.4433C44.8978 15.4508 44.746 15.4749 44.6059 15.5142C44.4732 15.5473 44.4898 15.6182 44.6059 15.6276C44.7585 15.6258 44.9097 15.6099 45.0534 15.5804ZM83.4605 12.655C83.5019 12.6125 83.6345 12.5416 83.6428 12.4613C83.6494 12.4328 83.6446 12.404 83.6287 12.3768C83.6128 12.3496 83.5863 12.3248 83.5512 12.3043C83.5161 12.2839 83.4732 12.2682 83.4259 12.2585C83.3786 12.2489 83.3281 12.2455 83.2781 12.2486C83.2035 12.2587 83.1343 12.2791 83.0765 12.3079C83.0187 12.3367 82.9742 12.3731 82.9466 12.414C82.8803 12.5558 83.1124 12.5889 83.4439 12.655H83.4605Z" fill="url(#paint0_linear)" fill-opacity="0.5"/>
<path d="M86.2452 15.4054C85.6937 15.2599 85.1593 15.0942 84.6456 14.9091C84.4748 14.838 84.3582 14.7322 84.3196 14.6136C84.2811 14.495 84.3236 14.3725 84.4384 14.2711C84.4766 14.2144 84.5386 14.1639 84.6189 14.1239C84.6991 14.0839 84.7953 14.0557 84.899 14.0417C85.0028 14.0278 85.1109 14.0284 85.2141 14.0437C85.3172 14.059 85.4123 14.0884 85.491 14.1293C86.0214 14.3184 86.701 14.4035 86.8171 14.843C86.8751 15.0745 87.0243 15.2541 86.5933 15.481C86.2091 15.7686 85.9018 16.0871 85.6816 16.4262C85.6682 16.4474 85.647 16.4669 85.6195 16.4832C85.5921 16.4995 85.5588 16.5123 85.5221 16.5207C85.4853 16.5292 85.4458 16.5332 85.4062 16.5324C85.3665 16.5315 85.3277 16.5259 85.2921 16.516C85.0932 16.4545 84.9191 16.3222 85.1263 16.2371C85.665 16.0103 85.4827 15.6038 86.2452 15.4054Z" fill="url(#paint1_linear)" fill-opacity="0.5"/>
<path d="M83.2202 8.21262C82.6964 8.15589 82.1789 8.08173 81.6703 7.9905C81.2062 7.89598 81.0902 7.67859 81.2145 7.39976C81.3388 7.12093 81.7118 7.03586 82.1842 7.10675C82.5517 7.13147 82.9083 7.19391 83.2368 7.29106C83.7838 7.51791 84.3391 7.76366 83.8501 8.23625C83.6778 8.48828 83.5636 8.75198 83.5103 9.02076C83.444 9.17672 83.5103 9.4461 83.0461 9.36575C82.7063 9.30904 82.897 9.13418 82.9633 8.98768C83.0722 8.73201 83.158 8.47332 83.2202 8.21262Z" fill="url(#paint2_linear)" fill-opacity="0.5"/>
<path d="M79.0347 8.1985C79.532 8.10398 79.9629 8.0709 80.1121 8.1985C80.5431 8.59075 80.9409 8.64274 81.5874 8.345C81.6537 8.31192 81.9272 8.345 82.0184 8.40644C82.1095 8.46788 82.0681 8.63329 81.9438 8.73253C81.8396 8.81796 81.689 8.8814 81.5151 8.91302C81.3413 8.94463 81.154 8.94266 80.9824 8.90739C80.2531 8.75158 79.5895 8.51006 79.0347 8.1985Z" fill="url(#paint3_linear)" fill-opacity="0.5"/>
<path d="M23.3966 25.7317C23.6478 25.7592 23.8697 25.8422 24.014 25.9626C24.1584 26.0829 24.2135 26.231 24.1674 26.3744C24.1674 26.7005 23.7944 26.6627 23.4132 26.6202C23.0319 26.5776 22.6341 26.4831 22.8496 26.3366C23.0651 26.1901 22.9656 25.8073 23.3966 25.7317Z" fill="url(#paint4_linear)" fill-opacity="0.5"/>
<path d="M84.7285 15.4668C84.6704 15.722 83.9908 15.8307 83.4853 15.6653C83.2532 15.5896 82.9051 15.4762 82.9714 15.3675C83.1041 15.1549 83.4024 15.4148 83.6262 15.3675C83.85 15.3203 84.0571 15.1879 84.3389 15.2305C84.4431 15.2362 84.5401 15.2633 84.6118 15.3068C84.6834 15.3503 84.7249 15.4071 84.7285 15.4668Z" fill="url(#paint5_linear)" fill-opacity="0.5"/>
<path d="M54.6179 25.1505C54.6005 25.2357 54.5368 25.3157 54.4358 25.3793C54.3347 25.4429 54.2013 25.4868 54.0543 25.505C53.7393 25.5475 53.6233 25.3868 53.5985 25.2261C53.5868 25.1816 53.5913 25.1361 53.6116 25.0926C53.6319 25.049 53.6676 25.0083 53.7165 24.9729C53.7654 24.9375 53.8265 24.9082 53.896 24.8867C53.9654 24.8652 54.0419 24.8521 54.1206 24.8481C54.3858 24.8197 54.593 24.952 54.6179 25.1505Z" fill="url(#paint6_linear)" fill-opacity="0.5"/>
</g>
<defs>
<linearGradient id="paint0_linear" x1="-3.01758" y1="3.65161" x2="10.7258" y2="54.3147" gradientUnits="userSpaceOnUse">
<stop stop-color="#FDEB71"/>
<stop offset="1" stop-color="#F8D800"/>
</linearGradient>
<linearGradient id="paint1_linear" x1="84.3058" y1="14.0317" x2="86.8052" y2="16.6142" gradientUnits="userSpaceOnUse">
<stop stop-color="#FDEB71"/>
<stop offset="1" stop-color="#F8D800"/>
</linearGradient>
<linearGradient id="paint2_linear" x1="81.168" y1="7.08301" x2="83.4095" y2="9.88378" gradientUnits="userSpaceOnUse">
<stop stop-color="#FDEB71"/>
<stop offset="1" stop-color="#F8D800"/>
</linearGradient>
<linearGradient id="paint3_linear" x1="79.0347" y1="8.11475" x2="79.4484" y2="9.64403" gradientUnits="userSpaceOnUse">
<stop stop-color="#FDEB71"/>
<stop offset="1" stop-color="#F8D800"/>
</linearGradient>
<linearGradient id="paint4_linear" x1="22.7888" y1="25.7317" x2="23.6296" y2="27.0116" gradientUnits="userSpaceOnUse">
<stop stop-color="#FDEB71"/>
<stop offset="1" stop-color="#F8D800"/>
</linearGradient>
<linearGradient id="paint5_linear" x1="82.9632" y1="15.2222" x2="83.247" y2="16.1821" gradientUnits="userSpaceOnUse">
<stop stop-color="#FDEB71"/>
<stop offset="1" stop-color="#F8D800"/>
</linearGradient>
<linearGradient id="paint6_linear" x1="53.5922" y1="24.8442" x2="54.2027" y2="25.7821" gradientUnits="userSpaceOnUse">
<stop stop-color="#FDEB71"/>
<stop offset="1" stop-color="#F8D800"/>
</linearGradient>
<clipPath id="clip0">
<rect width="95" height="30.2128" fill="white" transform="translate(0 0.107422)"/>
</clipPath>
</defs>
</svg>
