<svg width="30" height="39" viewBox="0 0 30 39" fill="none" xmlns="http://www.w3.org/2000/svg">
<path d="M22.8586 0.107422H0V38.9074H30V7.66886L22.8586 0.107422ZM23.2 2.21654L28.008 7.30742H23.2V2.21654ZM28.8 37.7074H1.2V1.30742H22V8.50742H28.8V37.7074Z" fill="#595552"/>
<path d="M26.1998 15.3872H3.7998V16.5872H26.1998V15.3872Z" fill="#595552"/>
<path d="M13.3998 11.3875H3.7998V12.5875H13.3998V11.3875Z" fill="#595552"/>
<path d="M26.1998 19.3877H3.7998V20.5877H26.1998V19.3877Z" fill="#595552"/>
<path d="M26.1998 23.3875H3.7998V24.5875H26.1998V23.3875Z" fill="#595552"/>
<path d="M26.1998 27.3872H3.7998V28.5872H26.1998V27.3872Z" fill="#595552"/>
<path d="M26.1998 31.3877H3.7998V32.5877H26.1998V31.3877Z" fill="#595552"/>
</svg>
