<svg width="10" height="8" viewBox="0 0 10 8" fill="none" xmlns="http://www.w3.org/2000/svg">
<path d="M4.2056 7.23996C4.24765 7.30103 4.30391 7.35096 4.36954 7.38546C4.43517 7.41995 4.50821 7.43798 4.58235 7.43798C4.6565 7.43798 4.72953 7.41995 4.79516 7.38546C4.86079 7.35096 4.91705 7.30103 4.9591 7.23996L9.0841 1.28163C9.13185 1.2129 9.15985 1.13241 9.16506 1.04889C9.17027 0.965366 9.15249 0.882015 9.11366 0.807889C9.07482 0.733763 9.01642 0.671697 8.94478 0.628435C8.87315 0.585173 8.79103 0.562369 8.70735 0.562501H0.457353C0.373865 0.562845 0.29205 0.585943 0.220707 0.629309C0.149364 0.672674 0.0911919 0.734668 0.0524472 0.808622C0.0137024 0.882577 -0.00414937 0.965694 0.000811615 1.04904C0.0057726 1.13238 0.0333586 1.21279 0.0806031 1.28163L4.2056 7.23996Z" fill="#595552"/>
</svg>
