<svg width="512" height="379" viewBox="0 0 512 379" fill="none" xmlns="http://www.w3.org/2000/svg">
<path d="M473.974 188.052C464.47 189.624 455.632 186.661 446.203 187.103C446.645 189.785 449.368 190.249 450.39 192.766C451.412 195.283 450.587 196.088 449.998 198.142C449.107 201.085 447.786 200.076 446.496 200.123C435.644 200.754 425.258 198.51 414.689 197.472C397.959 195.849 381.142 194.798 364.238 194.319C347.334 193.841 330.376 193.573 313.363 193.516C284.761 193.485 256.239 195.597 228.047 199.834C211.689 202.18 195.358 204.767 179.02 208.512C158.811 213.129 138.585 218.204 118.39 223.098C116.063 223.531 113.962 224.709 112.416 226.449C109.233 229.982 108.098 229.315 104.425 227.597C99.2666 225.194 97.6108 219.149 93.774 215.475C93.3296 214.884 93.0328 214.2 92.908 213.481C92.7833 212.761 92.8342 212.026 93.0565 211.336V211.336C96.9167 213.705 100.936 215.245 105.472 211.497C107.512 209.806 110.364 207.963 107.018 204.979C105.748 203.835 106.679 202.028 107.858 200.819C109.037 199.609 110.465 199.306 111.067 197.528C110.354 195.554 108.746 196.638 107.53 196.906C88.466 200.765 69.637 205.592 51.1194 211.37C49.3548 211.93 47.5985 212.262 45.8034 212.694C42.6631 213.422 39.5826 213.787 38.8698 218.962C38.6519 220.463 36.7253 224.555 34.2867 221.069C33.6067 216.21 33.6108 216.096 29.5057 216.956C24.1587 218.078 18.6632 218.456 13.1804 218.078C11.4059 217.938 9.18628 218.131 8.53802 216.298C7.44996 213.021 4.34428 211.482 3.86985 207.745C3.53986 204.874 5.02254 204.013 7.10416 204.077C11.7736 204.128 15.0419 200.165 18.7108 197.436C19.9413 196.423 20.8839 195.116 21.4509 193.637C22.0179 192.158 22.1907 190.556 21.9533 188.98C24.3943 189.143 26.746 190.161 28.6844 187.696C32.308 183.723 37.1494 181.005 42.5089 179.935L45.0432 179.129C45.2987 176.908 44.6698 176.165 43.9328 175.496C42.5024 174.252 42.6992 173.013 44.2547 171.755C45.8102 170.496 47.6598 169.196 47.4608 166.917C47.1496 162.547 49.8695 161.464 52.1384 162.179C58.6246 164.126 65.0028 161.586 71.3516 159.538C87.1543 154.39 103.14 151.979 119.023 148.176C132.968 144.867 146.944 141.685 160.9 139.384C197.927 133.293 234.931 126.537 271.854 124.966C278.925 124.663 285.952 124.265 293.03 123.424C295.891 123.364 298.69 122.682 301.227 121.427C301.552 121.146 301.938 120.94 302.359 120.827C302.779 120.713 303.221 120.694 303.653 120.771C304.086 120.847 304.497 121.018 304.856 121.27C305.215 121.522 305.513 121.849 305.729 122.226C306.79 123.783 308.186 125.097 309.817 126.074C310.611 126.397 311.256 127.002 311.62 127.766C311.984 128.53 312.04 129.396 311.776 130.187C311.696 130.714 311.753 131.254 311.942 131.759C312.13 132.263 312.444 132.715 312.855 133.074C313.937 134.177 314.737 135.513 315.188 136.971C315.638 138.428 315.727 139.964 315.446 141.448C314.871 146.677 315.928 147.237 320.805 147.368C329.582 147.487 338.379 147.344 347.117 147.564C372.243 148.155 397.438 148.464 422.287 151.229C443.913 153.133 465.4 156.568 486.577 161.505C487.439 161.762 488.349 161.808 489.225 161.639C490.101 161.469 490.917 161.089 491.6 160.532C492.983 159.516 494.43 158.332 496.059 159.266C495.246 164.287 494.953 164.948 499.089 166.804C505.322 169.619 504.335 176.236 504.684 182.166C504.765 184.13 502.853 184.246 502.176 183.214C500.665 180.934 499.793 181.759 497.419 182.975C494.138 184.692 489.557 185.757 487.406 180.797C487.041 179.884 486.412 179.45 485.651 179.776C482.897 180.846 480.743 179.208 478.332 178.863C476.921 178.709 475.54 178.372 474.443 179.884C473.347 181.396 474.249 182.36 474.939 183.359C476.219 185.203 474.971 186.695 473.91 188.22L473.974 188.052ZM92.2404 193.98C90.3502 194.453 88.4401 193.528 86.0296 195.772C88.7319 196.809 90.4823 195.663 92.1406 193.826C93.2832 194.209 94.4987 194.316 95.6821 194.137C96.8656 193.958 97.9812 193.498 98.9327 192.798C95.6256 192.303 95.6256 192.303 92.2404 193.98ZM278.849 180.514C281.239 181.431 283.652 182.704 285.857 179.337C287.671 181.964 290.011 181.355 292.505 179.722C297.263 181.155 302.336 181.07 306.984 179.477C302.193 179.533 297.593 177.229 292.544 179.93C290.631 177.767 288.073 179.568 285.844 179.37C283.491 180.014 281.077 177.813 278.849 180.823C277.865 180.176 276.706 179.84 275.532 179.86C274.357 179.88 273.224 180.256 272.289 180.936C268.895 180.19 265.38 180.276 262.06 181.187C258.114 181.012 254.189 181.624 250.522 182.985C249.423 182.66 248.287 182.485 247.145 182.463C239.34 183.335 231.458 184.409 223.653 185.59C221.345 185.669 219.112 186.346 217.179 187.551C217.877 187.798 218.603 187.959 219.339 188.032C228.738 187.771 238.136 184.921 247.522 184.694C248.174 184.687 248.806 184.491 249.34 184.132C249.873 183.773 250.284 183.267 250.521 182.675C254.387 183.578 258.245 184.71 262.094 180.891C263.586 182.029 265.43 182.624 267.302 182.572C269.175 182.52 270.957 181.824 272.336 180.606C274.274 182.392 276.544 181.447 278.81 180.615L278.849 180.514ZM182.006 201.657C179.234 200.595 176.433 201.994 172.653 202.94C176.517 205.195 179.388 206.102 181.954 201.483C182.415 201.755 182.919 201.949 183.443 202.054C184.179 202.104 185.183 201.871 185.094 200.755C185.005 199.639 183.911 200.108 183.18 200.253C182.836 200.294 182.524 200.462 182.305 200.723C182.087 200.983 181.98 201.318 182.006 201.657V201.657ZM301.652 145.087C303.413 144.641 305.406 148.458 307.124 143.668C307.576 142.489 309.808 142.263 309.722 144.664C309.636 147.066 311.033 146.945 312.357 146.602C313.68 146.259 313.712 144.726 313.312 143.49C312.911 142.254 314.332 140.828 312.69 139.619C310.187 140.578 307.579 141.262 304.913 141.661C303.369 141.958 301.612 142.289 301.717 144.918C301.303 144.421 300.79 144.01 300.211 143.712C299.631 143.414 298.998 143.235 298.349 143.185C297.701 143.136 297.052 143.218 296.442 143.426C295.832 143.634 295.275 143.963 294.805 144.393C294.298 144.645 293.907 145.073 293.707 145.595C293.506 146.117 293.511 146.697 293.72 147.223C293.827 147.395 293.971 147.542 294.142 147.654C294.313 147.765 294.507 147.838 294.709 147.867C294.911 147.897 295.116 147.881 295.31 147.823C295.503 147.764 295.68 147.664 295.828 147.529C297.634 146.135 299.253 144.089 301.652 145.087ZM420.037 183.524C411.697 180.712 398.688 180.13 393.677 182.73L418.572 184.546C418.89 184.522 419.19 184.404 419.435 184.209C419.68 184.013 419.858 183.749 419.946 183.45C424.466 185.799 429.664 186.503 434.603 185.437C429.907 183.863 424.956 183.213 420.037 183.524V183.524ZM132.76 176.707C126.779 177.214 120.882 178.347 115.171 180.088C109.427 181.013 103.744 182.239 98.1453 183.762C92.6961 185.537 86.884 185.357 81.6021 188.664C89.076 188.864 126.721 179.918 132.76 176.707ZM58.362 194.554C54.4818 195.347 50.571 196.011 46.7084 196.965C42.7152 197.673 38.8097 198.765 35.0478 200.223C31.2386 201.969 27.2921 199.722 23.8153 203.297C35.4195 204.539 46.8593 198.955 58.15 194.589L58.362 194.554ZM312.795 179.348C323.28 181.333 334.011 181.441 344.464 179.665C333.929 178.446 323.311 178.339 312.795 179.348V179.348ZM371.365 180.396C366.828 179.584 362.372 178.146 357.495 179.986C361.832 183.079 366.766 180.99 371.365 180.396ZM389.98 181.698C387.733 179.059 385.337 179.918 382.366 180.827C383.411 181.744 384.716 182.324 386.099 182.487C387.482 182.65 388.875 182.389 390.084 181.738L389.98 181.698ZM223.251 194.826C225.758 195.328 228.349 194.954 230.571 193.769C227.095 193.093 227.095 193.093 223.251 194.826ZM206.852 189.195C210.805 189.977 211.514 189.785 211.273 188.031C210.488 187.905 209.688 187.943 208.925 188.144C208.163 188.345 207.456 188.703 206.852 189.195V189.195ZM364.27 188.535C361.65 187.182 361.65 187.182 358.635 188.307C360.3 189.563 362.168 189.043 364.27 188.535ZM47.7373 178.114C48.2478 178.365 48.8151 178.48 49.3803 178.445C49.9456 178.41 50.4883 178.228 50.9522 177.917C51.6439 177.564 52.6428 177.135 52.156 176.021C51.9905 175.803 51.7655 175.634 51.5077 175.535C51.2499 175.437 50.9699 175.411 50.7009 175.463C49.9917 175.57 49.3336 175.877 48.8071 176.348C48.2807 176.819 47.9089 177.433 47.7373 178.114ZM244.865 191.52C242.82 190.737 241.4 190.192 240.219 192.444C241.838 192.648 243.472 192.323 244.865 191.52V191.52ZM353.096 179.227C352.408 179.156 351.641 178.669 351.106 179.546C351.013 179.657 350.951 179.79 350.926 179.933C350.902 180.076 350.917 180.224 350.969 180.361C351.021 180.498 351.108 180.62 351.222 180.715C351.336 180.81 351.473 180.874 351.62 180.902C351.977 181.062 352.378 181.098 352.755 181.003C353.131 180.908 353.461 180.688 353.687 180.381C354.253 179.631 353.461 179.521 353.096 179.227ZM104.91 191.303C105.104 190.797 105.169 190.629 104.52 190.766C104.126 190.836 103.764 191.02 103.482 191.296C103.167 191.6 103.397 192.036 103.882 191.913C104.261 191.774 104.61 191.567 104.91 191.303V191.303Z" fill="url(#paint0_linear)"/>
<defs>
<linearGradient id="paint0_linear" x1="82.623" y1="0.703125" x2="121.75" y2="408.142" gradientUnits="userSpaceOnUse">
<stop stop-color="#FDEB71"/>
<stop offset="1" stop-color="#F8D800"/>
</linearGradient>
</defs>
</svg>
