<svg width="105" height="50" viewBox="0 0 105 50" fill="none" xmlns="http://www.w3.org/2000/svg">
<path d="M17.0884 11.3122V3.7124H21.0849V22.8481H17.0884V14.9193H9.50616V22.8461H5.48047V3.71045H9.50616V11.3102H17.0884V11.3122Z" fill="#1F1300"/>
<path d="M43.5433 22.8481H39.1672L37.9428 19.4044H29.8057L28.5813 22.8481H24.2363L31.3825 3.7124H36.3699L43.5433 22.8481ZM33.8898 8.0593L31.0886 15.8771H36.6891L33.8898 8.0593Z" fill="#1F1300"/>
<path d="M46.6934 3.7124H54.3067C56.2515 3.7124 57.9042 4.33144 59.2649 5.57146C60.6061 6.81149 61.2777 8.33183 61.2777 10.1364C61.2777 11.9409 60.6061 13.4632 59.2649 14.7013C57.9042 15.9413 56.2515 16.5604 54.3067 16.5604H50.7191V22.8481H46.6934V3.7124ZM50.7191 13.033H54.3067C55.1613 13.033 55.8719 12.7546 56.4364 12.1998C57.0009 11.645 57.2832 10.9559 57.2832 10.1364C57.2832 9.29737 57.0009 8.60631 56.4364 8.0593C55.8719 7.51229 55.1633 7.23975 54.3067 7.23975H50.7191V13.033Z" fill="#1F1300"/>
<path d="M65.0674 3.7124H72.6808C74.6255 3.7124 76.2782 4.33144 77.6389 5.57146C78.9802 6.81149 79.6518 8.33183 79.6518 10.1364C79.6518 11.9409 78.9802 13.4632 77.6389 14.7013C76.2782 15.9413 74.6255 16.5604 72.6808 16.5604H69.0931V22.8481H65.0674V3.7124ZM69.0931 13.033H72.6808C73.5354 13.033 74.2459 12.7546 74.8104 12.1998C75.375 11.645 75.6572 10.9559 75.6572 10.1364C75.6572 9.29737 75.375 8.60631 74.8104 8.0593C74.2459 7.51229 73.5373 7.23975 72.6808 7.23975H69.0931V13.033Z" fill="#1F1300"/>
<path d="M94.4681 3.7124H99.0175L92.0192 15.3846V22.8481H88.0228V15.3846L81.0518 3.7124H85.6011L90.0336 11.6957L94.4681 3.7124Z" fill="#1F1300"/>
<path d="M15.0966 45.6379C12.0442 45.6379 9.50577 44.6724 7.48319 42.7413C5.48008 40.8297 4.47949 38.4489 4.47949 35.597C4.47949 32.7277 5.48008 30.3469 7.48319 28.4528C9.50577 26.5217 12.0423 25.5562 15.0966 25.5562C16.944 25.5562 18.6492 25.965 20.2144 26.7845C21.7795 27.6021 23 28.7117 23.8741 30.1075L20.4032 32.0113C19.897 31.147 19.1787 30.4715 18.2443 29.9848C17.3119 29.4981 16.2607 29.2548 15.0946 29.2548C13.111 29.2548 11.5069 29.8427 10.2825 31.0204C9.07751 32.2157 8.47404 33.7419 8.47404 35.599C8.47404 37.4386 9.07556 38.955 10.2825 40.1503C11.5069 41.328 13.111 41.9159 15.0946 41.9159C16.2607 41.9159 17.3158 41.6726 18.2599 41.1859C19.2021 40.6992 19.9165 40.0315 20.4032 39.1867L23.8741 41.0905C22.9981 42.4882 21.7795 43.5959 20.2144 44.4135C18.6492 45.2291 16.944 45.6379 15.0966 45.6379Z" fill="#1F1300"/>
<path d="M27.5225 45.2523V25.9453H31.5482V45.2523H27.5225Z" fill="#1F1300"/>
<path d="M65.0306 25.9453H69.58L62.5798 37.7226V45.2523H58.5833V37.7226L51.6123 25.9453H56.1617L60.5942 33.9986L65.0306 25.9453Z" fill="#1F1300"/>
<path d="M44.4964 33.1011H40.4707V45.2521H44.4964V33.1011Z" fill="#1F1300"/>
<path d="M34.9873 25.9453V29.5856H38.9643H40.471H44.4967H46.6926H50.0097V25.9453H34.9873Z" fill="#1F1300"/>
</svg>
