<svg width="46" height="46" viewBox="0 0 46 46" fill="none" xmlns="http://www.w3.org/2000/svg">
<circle cx="23" cy="23" r="21.5" stroke="#1F1300" stroke-width="3"/>
<path d="M19.6859 14.7724C20.1673 14.6272 20.6838 14.6514 21.1495 14.8407C21.6152 15.03 22.0021 15.3732 22.2456 15.813L22.3281 15.9769L23.0552 17.595C23.2762 18.0861 23.348 18.6314 23.2615 19.1629C23.1751 19.6945 22.9343 20.189 22.569 20.5848L22.4238 20.73L21.2754 21.8003C21.0686 21.9961 21.2237 22.754 21.9728 24.0498C22.6449 25.2158 23.1938 25.7603 23.4622 25.79H23.5095L23.5678 25.779L25.8228 25.0893C26.1259 24.9963 26.4493 24.9926 26.7544 25.0787C27.0595 25.1647 27.3334 25.3368 27.5432 25.5744L27.6444 25.7009L29.136 27.7689C29.4287 28.1741 29.5747 28.6669 29.5499 29.1662C29.5251 29.6654 29.331 30.1413 28.9996 30.5156L28.8654 30.6542L28.2681 31.2196C27.7327 31.7266 27.063 32.0692 26.3386 32.2067C25.6142 32.3441 24.8655 32.2707 24.1816 31.9951C22.0531 31.1371 20.1193 29.1769 18.3626 26.1343C16.6026 23.084 15.8711 20.4253 16.1978 18.1483C16.2968 17.4598 16.5804 16.8111 17.0185 16.2709C17.4566 15.7307 18.0328 15.3193 18.686 15.0804L18.8983 15.01L19.6859 14.7724V14.7724Z" fill="#1F1300"/>
</svg>
