<svg width="70" height="77" viewBox="0 0 70 77" fill="none" xmlns="http://www.w3.org/2000/svg">
<g clip-path="url(#clip0)">
<path d="M9.82054 19.2622C9.8378 19.0294 9.90836 18.8037 10.0268 18.6025C10.1452 18.4013 10.3083 18.2301 10.5035 18.102C11.0301 17.7318 11.2358 17.5261 10.5035 17.1393C10.1579 16.9583 10.8408 15.7323 11.2852 15.757C11.532 15.757 12.0092 15.7076 12.0422 16.0944C12.0751 16.4811 11.7459 16.6127 12.0422 17.1064C13.6302 15.864 15.5392 14.9918 16.3455 13.1404C16.3867 13.0417 16.4113 12.8442 16.4689 12.836C17.5386 12.6961 17.2918 11.8733 17.4563 11.3302C17.5021 11.0656 17.6359 10.8241 17.836 10.6449C18.0361 10.4657 18.2908 10.3593 18.5589 10.3428C20.2045 9.99726 21.4964 8.90291 22.7306 7.87439C23.1585 7.5288 22.492 6.80472 23.2819 6.22875C24.0718 5.65277 25.1168 4.58311 26.2687 4.36095C26.8433 4.27131 27.3993 4.08784 27.9144 3.81788C29.9799 2.80191 32.1517 2.01818 34.39 1.48108C34.7588 1.35391 35.1391 1.26297 35.5255 1.20955C36.557 1.23368 37.5719 0.946985 38.4383 0.386725C39.0365 0.140644 39.6757 0.00944828 40.3225 0C40.4377 0.493692 39.9276 1.15195 40.9972 1.11904C41.746 1.11904 42.503 1.64564 43.26 1.11904C43.3505 1.05321 43.5562 0.962699 43.5974 0.995612C45.1854 2.1887 47.0697 0.781679 48.6989 1.43171C50.5337 2.17224 52.4016 2.87164 54.1788 3.71092C55.1991 4.20461 56.4169 4.62425 56.6473 5.89962C56.7163 6.10019 56.8247 6.285 56.966 6.44323C57.1072 6.60146 57.2786 6.72994 57.4701 6.82118C58.4822 7.34778 59.4778 7.77565 59.1158 9.09216C59.0006 9.50357 59.5766 9.76687 60.0538 9.82447C60.2847 9.85984 60.5005 9.96087 60.6756 10.1155C60.8507 10.2702 60.9776 10.4719 61.0412 10.6967C61.7064 12.0637 62.5175 13.3548 63.4603 14.5475C64.8755 16.621 65.4515 18.9825 66.3731 21.2288C66.6364 21.8706 66.875 22.5124 67.1959 23.1459C68.1339 25.3682 68.7677 27.7069 69.0801 30.0988C69.4804 32.2703 69.6869 34.4732 69.6973 36.6813C69.6314 39.6517 69.8454 42.6385 69.146 45.6089C68.479 48.5034 67.5594 51.3338 66.3977 54.0675C65.0662 57.086 63.1634 59.8186 60.7943 62.1147C60.1937 62.7071 59.6177 63.3325 59.0582 63.9578C58.2901 64.9673 57.3346 65.8194 56.2441 66.4674C55.5883 66.7941 55.0231 67.2773 54.5985 67.8744C54.1462 68.477 53.5371 68.9438 52.8376 69.2238C51.2101 69.893 49.6687 70.7549 48.2463 71.791C47.1849 72.6139 45.5639 72.9265 44.1322 73.3544C41.5979 74.1196 39.006 74.7614 36.4717 75.5349C34.5835 76.0883 32.6589 76.509 30.712 76.7938C26.8283 77.4109 23.1749 76.621 19.6121 75.395C18.4088 74.9753 17.2374 74.4693 16.1069 73.881C15.483 73.6115 14.9471 73.1725 14.56 72.6139C14.9385 72.6139 15.2923 72.8936 15.7942 72.6139C15.3893 72.2041 14.9361 71.845 14.4448 71.5442C14.0498 71.3549 13.984 71.7581 13.984 72.0461C12.6675 71.429 12.0751 70.1948 10.9807 69.4131C9.88637 68.6314 9.21988 67.3314 8.37238 66.2946C7.51241 65.1448 6.88877 63.836 6.53748 62.4438C5.86277 60.214 4.89184 58.0417 4.64499 55.7131C4.64499 55.2359 4.23358 54.8903 4.04434 54.4625C3.85509 54.0346 3.49305 53.6396 3.95383 53.0719C4.41461 52.5041 3.5671 50.6034 2.9253 49.9945C2.67452 49.77 2.48244 49.4875 2.36578 49.1717C2.17653 48.4805 3.01581 47.5261 1.67461 47.1476C1.64067 46.3174 1.53607 45.4916 1.36194 44.6791C0.925842 43.0993 0.917614 41.4619 0.399236 39.8574C0.0536514 38.8042 -0.423585 37.4794 0.777734 36.4016C1.19737 36.0231 1.42776 35.3483 1.9626 36.2781C2.06134 36.4592 2.2259 36.4674 2.42338 36.4921C2.77719 36.5497 3.16392 36.9858 3.4519 36.5908C3.73989 36.1959 3.61647 35.768 2.95821 35.7186C2.68668 35.7186 2.44806 35.587 2.44806 35.2907C3.74812 35.3895 3.74812 35.3895 3.65761 34.361C3.5671 33.3324 4.01142 32.7153 5.56656 32.0653C5.07286 33.1761 4.80133 34.1799 6.10139 34.8793C6.90009 33.7478 7.39581 32.4306 7.54133 31.0532C7.54966 30.9409 7.54966 30.8282 7.54133 30.7159C7.49196 29.9506 8.84961 29.5721 8.4958 28.9715C8.06793 28.2392 8.41352 27.6961 8.4958 27.0708C8.57808 26.4454 8.61922 25.853 9.63129 25.7378C10.1085 25.6802 10.125 25.1701 10.1826 24.7504C10.3471 23.3936 10.9887 22.1395 11.9928 21.2123C12.7416 20.4882 13.4821 19.5667 12.8156 18.4394C12.6922 18.2255 12.9226 17.847 12.4536 17.7729C12.2685 17.7345 12.0759 17.761 11.9081 17.8479C11.7402 17.9348 11.6074 18.0769 11.532 18.2501C11.0136 19.3034 11.0136 19.3034 10.1003 19.6736L9.82054 19.2622ZM35.4267 7.19145C35.6571 6.97751 35.8546 6.73067 35.5337 6.49205C35.426 6.42771 35.2988 6.40396 35.1751 6.42508C35.0514 6.4462 34.9393 6.5108 34.859 6.60724C34.6122 6.82941 34.2007 7.06802 34.6368 7.43006C34.8425 7.59463 35.1058 7.43006 35.3115 7.30664C35.1634 7.39715 34.9166 7.47121 34.8837 7.5864C34.8014 7.9073 35.0729 7.98135 35.3362 7.85793C35.8875 7.59463 36.48 7.35601 36.7021 6.74712C36.085 6.58256 35.6407 6.66484 35.4267 7.19145ZM21.8255 10.2112C22.0394 11.0834 21.0027 11.6594 21.0521 12.5398C21.7679 12.4164 22.0065 11.9062 22.4179 11.5853C22.8293 11.2644 22.7718 10.96 22.2451 10.7131C22.0477 10.6226 21.9407 10.3758 21.8173 10.2112C22.9281 10.4498 22.9445 9.91498 22.8623 9.1909C22.097 9.31432 22.7471 10.3099 21.8255 10.2112ZM9.48319 32.3451C8.7217 33.033 8.18304 33.9326 7.93628 34.9287C7.87362 35.0583 7.85824 35.2057 7.8928 35.3455C7.92736 35.4852 8.00969 35.6085 8.12553 35.6939C8.42997 35.9079 8.73442 35.6939 9.03063 35.6199C9.1924 35.5662 9.33667 35.4698 9.44819 35.3409C9.55971 35.212 9.63435 35.0554 9.66421 34.8876C9.92659 34.03 9.84698 33.1041 9.44204 32.3039L10.5529 31.7033C9.66421 31.4153 9.55724 31.8596 9.49141 32.3451H9.48319ZM15.0701 21.525C16.2468 20.768 16.2468 20.768 15.605 19.328C14.4119 19.8546 14.4777 19.8793 13.6796 21.5085C13.3175 22.2491 14.0745 22.5535 14.1074 23.1542C14.8398 22.9402 14.8068 22.3313 15.0043 21.9117C15.029 21.7636 15.0537 21.6402 15.0784 21.525H15.0701ZM14.9796 24.3884C14.4448 24.6928 13.4245 24.9973 13.5397 25.4005C13.8935 26.6182 12.6346 27.0461 12.3301 27.9347C10.7668 27.2683 11.8611 26.0834 11.5073 25.203C11.3016 25.3017 11.1453 25.3264 11.0877 25.4005C9.96042 26.9144 10.2649 28.7493 9.56547 30.3374C9.55159 30.3803 9.5477 30.4259 9.55412 30.4706C9.56053 30.5152 9.57707 30.5579 9.60248 30.5952C9.62788 30.6325 9.66147 30.6635 9.70069 30.6858C9.73991 30.7082 9.78372 30.7213 9.82877 30.7241C10.0178 30.743 10.2088 30.7206 10.3883 30.6583C10.9231 30.4772 10.7092 30.1234 10.6351 29.8354C10.5611 29.5475 10.7092 29.3911 11.0054 29.3335C11.132 29.3106 11.2625 29.324 11.3819 29.372C11.5013 29.4201 11.6047 29.5008 11.6801 29.6051C11.8178 29.7529 11.9073 29.9391 11.9367 30.1389C11.9661 30.3388 11.934 30.5429 11.8447 30.7241C11.672 31.2346 11.5372 31.7571 11.4415 32.2875C11.562 32.3653 11.6981 32.4159 11.8402 32.4358C11.9823 32.4557 12.127 32.4444 12.2643 32.4027C12.6264 32.4027 13.0871 32.6577 13.3258 32.2381C13.5644 31.8184 13.3258 31.5387 12.865 31.2918C12.4042 31.045 12.4289 30.6254 12.6428 30.2304C13.0213 29.5228 13.2023 28.7493 13.5479 28.0252C14.1397 26.8549 14.5873 25.6172 14.8809 24.339C15.4486 24.5941 15.9999 24.5365 16.0658 23.9523C16.1528 23.2777 16.4393 22.6445 16.8886 22.1339C17.0531 21.9282 16.9297 21.5826 16.4113 21.5167C16.0246 22.4794 14.4119 22.9814 14.9879 24.3884H14.9796ZM40.3225 60.8146C40.7833 61.1767 41.3099 61.3906 41.4087 61.7033C41.7378 62.7153 42.4866 62.6248 43.2682 62.3122C45.6515 61.3762 47.934 60.2018 50.0812 58.8069C50.3692 58.6095 50.8546 58.4284 50.542 57.9841C50.2293 57.5398 49.9249 57.26 49.4229 57.4987C48.378 57.9923 47.1026 58.3873 46.4772 59.1443C45.9555 59.7183 45.3077 60.1633 44.5847 60.4444C44.5189 60.4444 44.3708 60.4444 44.2556 60.3703C44.198 59.9424 45.1854 60.0576 44.8316 59.4158C44.5997 59.4702 44.3737 59.5474 44.1569 59.6462C43.6184 59.9189 43.1377 60.2933 42.7416 60.7488C42.0834 61.5716 41.7378 59.926 40.9726 60.4361C40.8245 60.5842 40.6434 60.6501 40.3225 60.8146ZM46.7817 6.21229C48.2463 5.90785 48.271 5.52935 47.3494 5.11794C46.4689 4.69723 45.4643 4.61523 44.5271 4.88755C43.8607 5.08503 43.2106 5.52935 42.5112 5.37301C41.4416 5.15085 40.8656 5.7186 39.9193 6.13824C41.4169 7.31487 42.9144 5.85025 44.2638 6.40977C44.3214 6.78004 43.441 6.63193 43.7866 7.23259C44.6636 6.88228 45.62 6.77981 46.5513 6.93637C47.3785 6.88923 48.2083 6.95008 49.0198 7.11739C49.3324 7.22436 49.604 6.9446 49.6369 6.61547C49.6698 6.28634 49.3818 6.22875 49.1349 6.22052C48.5507 6.19583 47.8925 6.21229 46.7817 6.21229ZM36.9078 1.99945C35.4679 1.84312 34.0855 1.8102 32.9418 2.73999C32.4893 3.11026 32.119 3.56281 31.2962 3.25014C30.8107 3.05266 30.2018 3.25014 30.6379 3.93308C30.702 4.02631 30.7362 4.13676 30.7362 4.24987C30.7362 4.36297 30.702 4.47342 30.6379 4.56665C30.5474 4.73121 30.1525 4.92046 30.5227 5.09326C30.6791 5.17554 31.0329 5.04389 31.2386 4.93692C33.0652 3.94131 34.4887 2.3039 36.8749 1.99945H36.9078ZM48.345 4.70653C49.3818 5.9243 50.8135 6.23698 52.0066 7.17499C51.3154 5.15085 50.8217 4.8135 48.345 4.70653ZM32.0943 6.11355C33.0301 5.95129 33.8925 5.50283 34.5628 4.82995C34.6202 4.72945 34.6377 4.611 34.6118 4.49818C34.5859 4.38536 34.5184 4.28643 34.4229 4.22107C34.2995 4.10587 34.1596 3.93308 33.9374 4.04005C33.1301 4.37584 32.3762 4.82766 31.6994 5.38124C31.6628 5.4069 31.6321 5.44011 31.6094 5.47862C31.5868 5.51714 31.5726 5.56006 31.5679 5.60451C31.5633 5.64896 31.5682 5.69389 31.5823 5.73628C31.5965 5.77867 31.6195 5.81753 31.65 5.85025C31.7893 5.9521 31.9381 6.04028 32.0943 6.11355V6.11355ZM3.29557 37.8497C2.72782 39.1415 1.92968 40.2112 3.36139 41.6265C3.38608 40.2688 4.11839 39.1909 3.29557 37.8497ZM41.9188 3.39002C43.0378 4.04005 44.2803 3.76852 45.35 4.16347C45.9671 4.38563 45.6544 3.7356 45.8354 3.51344C46.1728 3.0938 45.531 2.97861 45.3993 3.02798C44.3132 3.45584 43.1201 2.72353 41.9188 3.39002ZM30.712 17.2792C32.1931 17.5014 32.1931 17.5014 32.7773 16.514C32.1233 16.8539 31.4295 17.1109 30.712 17.2792V17.2792ZM21.2907 18.4312C22.0164 18.25 22.7656 18.1807 23.5123 18.2255C23.7098 18.2255 23.8661 18.0856 23.8579 17.9046C23.8312 17.802 23.7738 17.7102 23.6933 17.6413C23.0433 17.8634 22.0394 17.1393 21.2907 18.39V18.4312ZM32.9994 12.8607C33.1146 12.5727 33.0652 12.4904 32.9254 12.4328C32.7597 12.3467 32.5685 12.3234 32.387 12.3673C32.2055 12.4112 32.046 12.5192 31.938 12.6714C31.6994 12.9594 31.1152 13.124 31.3949 13.6094C31.431 13.6546 31.4777 13.6902 31.5308 13.7132C31.5838 13.7361 31.6417 13.7457 31.6994 13.7411C32.2129 13.5881 32.6668 13.2807 32.9994 12.8607V12.8607ZM40.0016 7.46298C39.4997 7.14208 39.1048 7.40538 38.6769 7.60286C38.249 7.80033 38.2984 7.88262 38.43 8.12123C38.5617 8.35985 38.7674 8.26934 38.9484 8.23643C39.4257 8.14592 39.8535 8.02249 40.0016 7.46298ZM18.3861 13.0746C18.5978 13.0332 18.8047 12.9697 19.0032 12.8854C19.2336 12.7373 19.7026 12.6221 19.5052 12.3094C19.3077 11.9967 18.8633 12.1777 18.5754 12.3588C18.2874 12.5398 18.2462 12.6714 18.3861 13.0746ZM35.4267 13.7822C35.7126 13.9101 36.036 13.9262 36.3331 13.8271C36.6302 13.7281 36.8793 13.5212 37.0312 13.2474C37.13 13.0993 36.9901 12.8771 36.7926 12.8524C36.5418 12.8459 36.2934 12.9027 36.0704 13.0178C35.8475 13.1329 35.6572 13.3024 35.5173 13.5107C35.5173 13.5107 35.4597 13.6177 35.4267 13.7822ZM8.48757 62.6989C8.45953 63.0689 8.54043 63.4391 8.72027 63.7637C8.90012 64.0883 9.17105 64.3531 9.49964 64.5255C9.47469 64.1656 9.37114 63.8155 9.19629 63.4999C9.02143 63.1843 8.77951 62.9109 8.48757 62.6989V62.6989ZM40.7751 9.48711C40.446 9.48711 40.2567 9.60231 40.2567 9.84915C40.2567 10.096 40.339 10.3264 40.6599 10.3182C40.9808 10.3099 41.3675 10.1618 41.4169 9.91498C41.4663 9.66813 41.0137 9.59408 40.7751 9.48711ZM20.5748 16.0121C19.752 16.2836 19.0361 16.0121 18.9292 16.8349C19.5463 16.9419 20.1305 17.0241 20.5748 16.0121ZM31.9298 14.5228C31.1069 14.712 30.6379 14.9177 30.6297 15.5924C31.2715 15.4855 31.5759 15.1481 31.9298 14.5228ZM13.8277 60.2057C13.8867 60.2175 13.9475 60.2172 14.0064 60.2048C14.0654 60.1924 14.1211 60.1681 14.1704 60.1335C14.2196 60.0989 14.2613 60.0546 14.2929 60.0034C14.3245 59.9521 14.3454 59.895 14.3543 59.8355C14.4119 59.5557 14.3543 59.243 13.9593 59.2348C13.8195 59.2348 13.6302 59.5392 13.5315 59.7285C13.4327 59.9177 13.5315 60.1399 13.7948 60.2057H13.8277ZM38.6769 24.0675C38.6769 23.9276 38.5864 23.8124 38.463 23.8782C38.2528 23.9833 38.0718 24.1388 37.9363 24.3308C37.8458 24.4871 38.0104 24.6517 38.249 24.5859C38.3599 24.5451 38.4579 24.4756 38.5331 24.3846C38.6083 24.2935 38.6579 24.184 38.6769 24.0675V24.0675ZM41.4992 24.6105C41.4992 24.3966 41.2852 24.3308 41.1042 24.2896C40.9232 24.2485 40.3554 24.0017 40.2814 24.3555C40.2073 24.7093 40.6928 24.808 41.0631 24.8327C41.1534 24.8477 41.2462 24.8344 41.3286 24.7946C41.4111 24.7548 41.4793 24.6905 41.5239 24.6105H41.4992ZM32.8431 7.77565C32.3494 7.86616 31.9709 8.02249 32.0203 8.51619C32.0203 8.56556 32.2177 8.65607 32.3082 8.63961C32.9171 8.5491 32.9171 8.1706 32.8431 7.77565ZM3.93737 42.8771C3.93737 42.7126 3.87154 42.5233 3.67407 42.5151C3.55621 42.5135 3.44166 42.554 3.35111 42.6295C3.26057 42.7049 3.20001 42.8103 3.18037 42.9265C3.131 43.1816 3.29557 43.3626 3.58356 43.3462C3.87154 43.3297 3.91268 43.0829 3.93737 42.8771ZM24.3433 16.4564C24.294 16.3577 24.2446 16.1849 24.1952 16.1849C24.038 16.1791 23.8816 16.2103 23.7387 16.276C23.5958 16.3418 23.4703 16.4402 23.3724 16.5634C23.2408 16.7279 23.43 16.8596 23.6275 16.8678C23.9978 16.9089 24.2775 16.8102 24.3433 16.4564ZM25.1662 12.2518C25.2238 12.2518 25.2978 12.2929 25.339 12.2518C25.6034 12.1352 25.8521 11.9859 26.0795 11.8075C26.1865 11.7005 26.0795 11.4866 25.8244 11.4948C25.6784 11.5097 25.5382 11.5603 25.4163 11.6421C25.2943 11.7239 25.1943 11.8343 25.125 11.9638C25.0674 12.1366 25.0674 12.2106 25.1908 12.2765L25.1662 12.2518ZM43.3587 10.3017C43.2929 10.1865 43.2106 9.87384 43.0872 9.85738C42.791 9.85738 42.7416 10.1125 42.6758 10.3099C42.61 10.5074 42.7663 10.7131 43.0708 10.6884C43.3752 10.6637 43.4328 10.6061 43.3834 10.3264L43.3587 10.3017ZM55.3473 9.16621C55.4329 9.29337 55.5498 9.39645 55.6866 9.46559C55.8235 9.53473 55.9757 9.56764 56.1289 9.56117C56.1948 9.56117 56.3264 9.38838 56.31 9.32255C56.2909 9.24798 56.2571 9.17797 56.2105 9.11668C56.164 9.05539 56.1056 9.00405 56.0389 8.9657C55.9722 8.92735 55.8984 8.90276 55.822 8.89339C55.7456 8.88402 55.6681 8.89005 55.5941 8.91114C55.5283 8.95228 55.4625 9.09216 55.3719 9.1909L55.3473 9.16621ZM29.9138 7.80033C29.925 7.75379 29.9241 7.70515 29.9111 7.65907C29.8981 7.613 29.8735 7.57103 29.8396 7.53718C29.8058 7.50333 29.7638 7.47873 29.7177 7.46574C29.6717 7.45275 29.623 7.4518 29.5765 7.46298C29.4561 7.46194 29.3389 7.50221 29.2446 7.57708C29.1503 7.65194 29.0844 7.75688 29.0581 7.87439C28.9923 8.09655 29.1486 8.17883 29.379 8.14592C29.4916 8.14423 29.6014 8.11093 29.696 8.04983C29.7906 7.98873 29.866 7.90227 29.9138 7.80033V7.80033ZM27.9062 5.70214C28.1164 5.64159 28.3143 5.54407 28.4904 5.41416C28.6138 5.27428 28.3998 5.14262 28.2435 5.08503C28.0872 5.02743 27.7498 5.00275 27.6593 5.27428C27.5688 5.54581 27.6675 5.57872 27.9062 5.70214ZM7.03118 55.6885C6.86679 55.5896 6.69318 55.5069 6.5128 55.4416C6.35646 55.3922 6.28241 55.5074 6.40583 55.6226C6.54063 55.7468 6.70489 55.8346 6.88307 55.8777C7.03118 55.9518 7.097 55.7954 7.03118 55.6885ZM7.2698 34.4021C7.19574 34.7312 6.68559 34.83 6.85838 35.2249C7.00111 35.1443 7.11652 35.023 7.18982 34.8764C7.26312 34.7298 7.29097 34.5646 7.2698 34.4021ZM53.2491 5.94076C53.1585 5.99836 52.9775 6.06418 52.9858 6.10532C53.0264 6.25069 53.1062 6.38208 53.2165 6.48512C53.3268 6.58816 53.4633 6.65887 53.6111 6.68953C53.8497 6.77181 54.0143 6.64016 53.9567 6.45091C53.8984 6.3081 53.8012 6.18454 53.676 6.09434C53.5509 6.00414 53.403 5.95092 53.2491 5.94076V5.94076ZM38.718 5.20845C38.5711 5.22078 38.4303 5.27234 38.3101 5.35774C38.19 5.44314 38.095 5.55924 38.0351 5.69391C37.9693 5.90785 38.2161 5.97367 38.3807 5.90785C38.5452 5.84202 38.9484 5.66923 38.9731 5.35656C38.9813 5.31542 38.8085 5.25782 38.718 5.20845ZM12.5194 34.2705C12.4618 34.1964 12.3877 34.0565 12.3301 34.0647C12.2715 34.0647 12.2134 34.0765 12.1594 34.0994C12.1054 34.1224 12.0565 34.156 12.0158 34.1982C11.9751 34.2405 11.9433 34.2905 11.9224 34.3454C11.9015 34.4002 11.8918 34.4587 11.8941 34.5173C11.8941 34.5914 12.0257 34.7477 12.0751 34.7395C12.3466 34.7065 12.47 34.5008 12.5194 34.2705ZM61.0659 60.8393C61.0135 60.7429 60.9558 60.6495 60.8931 60.5595C60.7138 60.5792 60.5417 60.6412 60.3911 60.7406C60.2266 60.8969 60.3912 61.0615 60.5722 61.0532C60.7532 61.045 60.8931 60.8887 61.0329 60.8393H61.0659ZM18.1064 19.0401C18.1064 18.8673 18.1064 18.6698 17.8101 18.7192C17.6897 18.7376 17.577 18.7899 17.4852 18.8701C17.3934 18.9502 17.3263 19.0548 17.2918 19.1717C17.2342 19.3774 17.3494 19.5173 17.5962 19.4844C17.7177 19.4748 17.8328 19.4265 17.9247 19.3465C18.0165 19.2665 18.0802 19.159 18.1064 19.0401Z" fill="url(#paint0_linear)"/>
<path d="M9.81638 19.2622L10.0879 19.5667C10.5981 20.0439 10.9107 20.5211 10.3677 21.1711C10.1354 21.4336 9.96175 21.7426 9.85819 22.0774C9.75462 22.4122 9.72354 22.7652 9.76701 23.113C9.32268 22.3889 8.78785 22.5041 8.32707 22.3889C7.21626 22.1174 6.97765 21.2534 7.83338 20.5869C8.45872 20.1097 9.15812 19.6983 9.81638 19.2622Z" fill="url(#paint1_linear)"/>
<path d="M5.41385 24.479C5.21978 24.1891 5.14875 23.8339 5.21637 23.4916C5.2094 23.4291 5.21688 23.3657 5.23824 23.3065C5.2596 23.2473 5.29427 23.1937 5.33958 23.15C5.38489 23.1063 5.43962 23.0736 5.49957 23.0543C5.55953 23.0351 5.62309 23.0299 5.68538 23.0391C6.42771 23.3074 7.06679 23.8026 7.51204 24.4543C7.59432 24.8658 7.0348 25.2772 6.68922 25.0385C6.26014 24.7973 5.81786 24.5803 5.36448 24.3885L5.41385 24.479Z" fill="url(#paint2_linear)"/>
<path d="M17.5011 9.16602C17.3612 10.4578 16.3656 10.6306 15.8554 11.1408C15.2973 11.6869 14.7036 12.1955 14.0781 12.663C14.6294 11.2313 16.0447 10.4414 17.5011 9.16602Z" fill="url(#paint3_linear)"/>
<path d="M12.0463 12.3423C11.8076 12.6209 11.5016 12.8337 11.1573 12.9605C10.8131 13.0872 10.4421 13.1237 10.0797 13.0664C9.70125 13.0664 9.47909 12.8606 9.512 12.5315C9.54491 12.2024 9.69302 11.8239 10.2114 11.9391C10.8414 11.9686 11.4619 12.105 12.0463 12.3423V12.3423Z" fill="url(#paint4_linear)"/>
<path d="M5.41404 24.4789L5.34822 24.4131C5.41404 24.8574 5.43873 25.2853 6.05584 25.5074C6.28623 25.5897 6.22863 25.9435 5.93242 26.0258C4.93681 26.3303 5.01086 25.384 4.73933 25.0055C4.4678 24.627 4.82161 24.3143 5.41404 24.4789Z" fill="url(#paint5_linear)"/>
<path d="M4.87134 27.696C5.24984 27.3422 5.24984 26.7333 5.91633 26.5687C6.00011 26.5317 6.09223 26.5175 6.18328 26.5276C6.27434 26.5377 6.36109 26.5718 6.4347 26.6263C6.46883 26.6524 6.49647 26.6861 6.5155 26.7246C6.53453 26.7631 6.54443 26.8055 6.54443 26.8485C6.54443 26.8915 6.53453 26.9339 6.5155 26.9724C6.49647 27.0109 6.46883 27.0445 6.4347 27.0707C5.98215 27.4491 5.61188 27.9428 4.78906 27.6713L4.87134 27.696Z" fill="url(#paint6_linear)"/>
<path d="M4.80462 27.6714C5.09261 27.8853 5.62744 28.1075 5.34768 28.4366C5.16971 28.583 4.94225 28.6552 4.71245 28.6383C4.48266 28.6215 4.26817 28.5168 4.11345 28.3461C3.66913 27.6549 4.69765 28.017 4.85399 27.7043L4.80462 27.6714Z" fill="url(#paint7_linear)"/>
<path d="M1.33282 33.209C1.77714 33.7767 1.54675 34.1305 1.05306 34.4103C1.00193 34.4176 0.949791 34.4124 0.901086 34.3952C0.852381 34.378 0.808545 34.3493 0.773302 34.3116C0.658107 33.8837 0.822671 33.5463 1.33282 33.209Z" fill="url(#paint8_linear)"/>
<path d="M2.15591 26.6512C2.0654 26.9474 1.97489 27.186 1.79387 27.1449C1.61285 27.1038 1.57994 26.7911 1.61285 26.5854C1.64576 26.3797 1.71982 26.2398 1.95844 26.3385C2.02194 26.3605 2.07608 26.4034 2.11196 26.4603C2.14785 26.5171 2.16335 26.5844 2.15591 26.6512V26.6512Z" fill="url(#paint9_linear)"/>
<path d="M3.24191 27.7456C3.36534 27.7456 3.48053 27.7456 3.48053 27.8937C3.49353 28.0591 3.46819 28.2252 3.40648 28.3792C3.34065 28.5355 3.209 28.5191 3.14317 28.3792C3.07735 28.2393 3.01975 27.9266 3.24191 27.7456Z" fill="url(#paint10_linear)"/>
<path d="M15.008 21.879C14.6459 21.9201 14.5307 21.772 14.6212 21.4923C14.7118 21.2125 14.8187 21.0808 15.1396 21.2372C15.1396 21.2372 15.1396 21.4264 15.0738 21.5252C15.008 21.6239 15.0244 21.7638 15.008 21.879Z" fill="url(#paint11_linear)"/>
</g>
<defs>
<linearGradient id="paint0_linear" x1="0.0078125" y1="0" x2="76.6338" y2="69.3434" gradientUnits="userSpaceOnUse">
<stop stop-color="#FDEB71"/>
<stop offset="1" stop-color="#F8D800"/>
</linearGradient>
<linearGradient id="paint1_linear" x1="7.31738" y1="19.2622" x2="11.1287" y2="22.563" gradientUnits="userSpaceOnUse">
<stop stop-color="#FDEB71"/>
<stop offset="1" stop-color="#F8D800"/>
</linearGradient>
<linearGradient id="paint2_linear" x1="5.19141" y1="23.0347" x2="7.25187" y2="25.3479" gradientUnits="userSpaceOnUse">
<stop stop-color="#FDEB71"/>
<stop offset="1" stop-color="#F8D800"/>
</linearGradient>
<linearGradient id="paint3_linear" x1="14.0781" y1="9.16602" x2="17.5743" y2="12.5882" gradientUnits="userSpaceOnUse">
<stop stop-color="#FDEB71"/>
<stop offset="1" stop-color="#F8D800"/>
</linearGradient>
<linearGradient id="paint4_linear" x1="9.50879" y1="11.918" x2="10.4045" y2="13.8528" gradientUnits="userSpaceOnUse">
<stop stop-color="#FDEB71"/>
<stop offset="1" stop-color="#F8D800"/>
</linearGradient>
<linearGradient id="paint5_linear" x1="4.64648" y1="24.4131" x2="6.31389" y2="25.9596" gradientUnits="userSpaceOnUse">
<stop stop-color="#FDEB71"/>
<stop offset="1" stop-color="#F8D800"/>
</linearGradient>
<linearGradient id="paint6_linear" x1="4.78906" y1="26.5244" x2="5.9389" y2="28.172" gradientUnits="userSpaceOnUse">
<stop stop-color="#FDEB71"/>
<stop offset="1" stop-color="#F8D800"/>
</linearGradient>
<linearGradient id="paint7_linear" x1="4.00293" y1="27.6714" x2="4.9049" y2="28.9958" gradientUnits="userSpaceOnUse">
<stop stop-color="#FDEB71"/>
<stop offset="1" stop-color="#F8D800"/>
</linearGradient>
<linearGradient id="paint8_linear" x1="0.738281" y1="33.209" x2="1.86455" y2="33.9864" gradientUnits="userSpaceOnUse">
<stop stop-color="#FDEB71"/>
<stop offset="1" stop-color="#F8D800"/>
</linearGradient>
<linearGradient id="paint9_linear" x1="1.60156" y1="26.3062" x2="2.37677" y2="26.8174" gradientUnits="userSpaceOnUse">
<stop stop-color="#FDEB71"/>
<stop offset="1" stop-color="#F8D800"/>
</linearGradient>
<linearGradient id="paint10_linear" x1="3.08398" y1="27.7456" x2="3.70475" y2="28.0789" gradientUnits="userSpaceOnUse">
<stop stop-color="#FDEB71"/>
<stop offset="1" stop-color="#F8D800"/>
</linearGradient>
<linearGradient id="paint11_linear" x1="14.5918" y1="21.1704" x2="15.2824" y2="21.6993" gradientUnits="userSpaceOnUse">
<stop stop-color="#FDEB71"/>
<stop offset="1" stop-color="#F8D800"/>
</linearGradient>
<clipPath id="clip0">
<rect width="69.66" height="76.9913" fill="white"/>
</clipPath>
</defs>
</svg>
